<?xml version="1.0" encoding="utf-8"?>
<!-- Generator: Adobe Illustrator 19.0.0, SVG Export Plug-In . SVG Version: 6.00 Build 0)  -->
<svg version="1.1" id="Слой_1" xmlns="http://www.w3.org/2000/svg" xmlns:xlink="http://www.w3.org/1999/xlink" x="0px" y="0px"
	 viewBox="0 0 12 12" style="enable-background:new 0 0 12 12;" xml:space="preserve">
<style type="text/css">
	.st0{fill-rule:evenodd;clip-rule:evenodd;fill:#FFFFFF;}
</style>
<g id="Pic_копия_3">
	<g id="XMLID_15_">
		<path id="XMLID_16_" class="st0" d="M7.9,6l3.8-3.8c0.3-0.3,0.3-0.8,0-1.2L11,0.2c-0.3-0.3-0.8-0.3-1.2,0L6,4.1L2.2,0.3
			C1.9-0.1,1.3-0.1,1,0.3L0.2,1c-0.3,0.3-0.3,0.8,0,1.2L4,6L0.2,9.8c-0.3,0.3-0.3,0.8,0,1.2L1,11.7c0.3,0.3,0.8,0.3,1.2,0L6,7.9
			l3.8,3.8c0.3,0.3,0.8,0.3,1.2,0l0.8-0.8c0.3-0.3,0.3-0.8,0-1.2L7.9,6z"/>
	</g>
</g>
</svg>
