<?xml version="1.0" encoding="utf-8"?>
<!-- Generator: Adobe Illustrator 19.0.0, SVG Export Plug-In . SVG Version: 6.00 Build 0)  -->
<svg version="1.1" id="Слой_1" xmlns="http://www.w3.org/2000/svg" xmlns:xlink="http://www.w3.org/1999/xlink" x="0px" y="0px"
	 viewBox="0 0 11 11" style="enable-background:new 0 0 11 11;" xml:space="preserve">
<style type="text/css">
	.st0{fill-rule:evenodd;clip-rule:evenodd;fill:#4988C2;}
</style>
<path id="XMLID_1_" class="st0" d="M5.5,0c3,0,5.5,2.5,5.5,5.5S8.6,11,5.5,11C2.5,11,0,8.5,0,5.5S2.5,0,5.5,0z M6.1,6.1h2.5
	C8.8,6.1,9,6,9,5.8l0-0.5C9,5,8.8,4.9,8.6,4.9H6.1l0-2.5C6.1,2.2,6,2,5.8,2L5.3,2C5,2,4.9,2.2,4.9,2.4l0,2.5l-2.5,0
	C2.2,4.9,2,5,2,5.2l0,0.5C2,6,2.2,6.1,2.4,6.1l2.5,0l0,2.5C4.9,8.8,5,9,5.3,9l0.5,0C6,9,6.1,8.8,6.1,8.6L6.1,6.1z"/>
</svg>
