<?xml version="1.0" encoding="utf-8"?>
<!-- Generator: Adobe Illustrator 14.0.0, SVG Export Plug-In  -->
<!DOCTYPE svg PUBLIC "-//W3C//DTD SVG 1.1//EN" "http://www.w3.org/Graphics/SVG/1.1/DTD/svg11.dtd" [
	<!ENTITY ns_flows "http://ns.adobe.com/Flows/1.0/">
]>
<svg version="1.1"
	 xmlns="http://www.w3.org/2000/svg" xmlns:xlink="http://www.w3.org/1999/xlink" xmlns:a="http://ns.adobe.com/AdobeSVGViewerExtensions/3.0/"
	 x="0px" y="0px" width="13px" height="15px" viewBox="0 0 13 15" enable-background="new 0 0 13 15" xml:space="preserve">
<defs>
</defs>
<g>
	<defs>
		<rect id="SVGID_1_" width="13" height="15"/>
	</defs>
	<clipPath id="SVGID_2_">
		<use xlink:href="#SVGID_1_"  overflow="visible"/>
	</clipPath>
	<path clip-path="url(#SVGID_2_)" fill="#307CC0" d="M3.956,0L3.956,0H4H3.956z M13,2h-3V0H9.043v1l0,0L9.031,2H4.719L3.953,1.984
		L3.956,1V0H3v2v0.8l0,0V2H1H0v2h13V2.24V2z M0,14c0,0.309,0.688,1,1,1h11c0.313,0,1-0.691,1-1V5H0V14z M10,6h2v2h-2V6z M10,9h2v2
		h-2V9z M10,12h2v2h-2V12z M7,6h2v2H7V6z M7,9h2v2H7V9z M7,12h2v2H7V12z M4,6h2v2H4V6z M4,9h2v2H4V9z M4,12h2v2H4V12z M1,6h2v2H1V6z
		 M1,9h2v2H1V9z M1,12h2v2H1V12z"/>
</g>
</svg>
