<?xml version="1.0" encoding="utf-8"?>
<!-- Generator: Adobe Illustrator 19.0.0, SVG Export Plug-In . SVG Version: 6.00 Build 0)  -->
<svg version="1.1" id="Слой_1" xmlns="http://www.w3.org/2000/svg" xmlns:xlink="http://www.w3.org/1999/xlink" x="0px" y="0px"
	 viewBox="0 0 10 15" style="enable-background:new 0 0 10 15;" xml:space="preserve">
<style type="text/css">
	.st0{fill-rule:evenodd;clip-rule:evenodd;fill:#FEFFFF;}
</style>
<g id="Forma_1_3_">
	<g id="XMLID_51_">
		<path id="XMLID_52_" class="st0" d="M1.1,3.8l8.3-2.1c0.5-0.1,0.7-0.6,0.6-1C9.9,0.2,9.4-0.1,8.9,0L6.4,0.7
			C6.1,0.3,5.7,0.1,5.3,0.3l-1,0.3C3.9,0.6,3.6,1,3.5,1.4L0.6,2.1C0.2,2.3-0.1,2.7,0,3.2C0.1,3.6,0.6,3.9,1.1,3.8z M8.6,4.5H1.4
			c-0.8,0-1.4,0.6-1.4,1.4l0.7,7.8c0,0.7,0.6,1.4,1.4,1.4H8c0.8,0,1.4-0.6,1.4-1.4L10,5.8C10,5.1,9.4,4.5,8.6,4.5z M3.2,12.6
			c0,0.4-0.3,0.7-0.7,0.7c-0.4,0-0.7-0.3-0.7-0.7V6.5c0-0.4,0.3-0.7,0.7-0.7c0.4,0,0.7,0.3,0.7,0.7V12.6z M5.6,12.6
			c0,0.4-0.3,0.7-0.7,0.7c-0.4,0-0.7-0.3-0.7-0.7V6.5c0-0.4,0.3-0.7,0.7-0.7c0.4,0,0.7,0.3,0.7,0.7V12.6z M8,12.6
			c0,0.4-0.3,0.7-0.7,0.7c-0.4,0-0.7-0.3-0.7-0.7V6.5c0-0.4,0.3-0.7,0.7-0.7C7.7,5.8,8,6.1,8,6.5V12.6z"/>
	</g>
</g>
</svg>
