<?xml version="1.0" encoding="utf-8"?>
<!-- Generator: Adobe Illustrator 19.0.0, SVG Export Plug-In . SVG Version: 6.00 Build 0)  -->
<svg version="1.1" id="Слой_1" xmlns="http://www.w3.org/2000/svg" xmlns:xlink="http://www.w3.org/1999/xlink" x="0px" y="0px"
	 viewBox="0 0 13 11" style="enable-background:new 0 0 13 11;" xml:space="preserve">
<style type="text/css">
	.st0{fill-rule:evenodd;clip-rule:evenodd;fill:#017FD8;}
</style>
<g id="Forma_1_6_">
	<g id="XMLID_85_">
		<path id="XMLID_86_" class="st0" d="M12.6,0.4C12.4,0.1,12.1,0,11.8,0H1.2C0.9,0,0.6,0.1,0.4,0.4C0.1,0.6,0,0.9,0,1.2v8.5
			c0,0.3,0.1,0.6,0.4,0.9C0.6,10.9,0.9,11,1.2,11h10.5c0.3,0,0.6-0.1,0.9-0.4c0.2-0.2,0.4-0.5,0.4-0.9V1.2C13,0.9,12.9,0.6,12.6,0.4
			z M4,9.8c0,0.1,0,0.1-0.1,0.2c0,0-0.1,0.1-0.2,0.1H1.2c-0.1,0-0.1,0-0.2-0.1C1,9.9,1,9.8,1,9.8V8.3c0-0.1,0-0.1,0.1-0.2
			C1.1,8,1.2,8,1.2,8h2.5c0.1,0,0.1,0,0.2,0.1C4,8.1,4,8.2,4,8.3V9.8z M4,6.8c0,0.1,0,0.1-0.1,0.2C3.9,7,3.8,7,3.7,7H1.2
			C1.2,7,1.1,7,1.1,6.9C1,6.9,1,6.8,1,6.8V5.2c0-0.1,0-0.1,0.1-0.2C1.1,5,1.2,5,1.2,5h2.5c0.1,0,0.1,0,0.2,0.1C4,5.1,4,5.2,4,5.2
			V6.8z M4,3.7c0,0.1,0,0.1-0.1,0.2C3.9,4,3.8,4,3.7,4H1.2C1.2,4,1.1,4,1.1,3.9C1,3.9,1,3.8,1,3.7V2.2c0-0.1,0-0.1,0.1-0.2
			C1.1,2,1.2,2,1.2,2h2.5c0.1,0,0.1,0,0.2,0.1C4,2.1,4,2.2,4,2.2V3.7z M8,9.8c0,0.1,0,0.1-0.1,0.2c0,0-0.1,0.1-0.2,0.1H5.2
			c-0.1,0-0.1,0-0.2-0.1C5,9.9,5,9.8,5,9.8V8.3c0-0.1,0-0.1,0.1-0.2C5.1,8,5.2,8,5.2,8h2.5c0.1,0,0.1,0,0.2,0.1C8,8.1,8,8.2,8,8.3
			V9.8z M8,6.8c0,0.1,0,0.1-0.1,0.2C7.9,7,7.8,7,7.8,7H5.2C5.2,7,5.1,7,5.1,6.9C5,6.9,5,6.8,5,6.8V5.2c0-0.1,0-0.1,0.1-0.2
			C5.1,5,5.2,5,5.2,5h2.5c0.1,0,0.1,0,0.2,0.1C8,5.1,8,5.2,8,5.2V6.8z M8,3.7c0,0.1,0,0.1-0.1,0.2C7.9,4,7.8,4,7.8,4H5.2
			C5.2,4,5.1,4,5.1,3.9C5,3.9,5,3.8,5,3.7V2.2c0-0.1,0-0.1,0.1-0.2C5.1,2,5.2,2,5.2,2h2.5c0.1,0,0.1,0,0.2,0.1C8,2.1,8,2.2,8,2.2
			V3.7z M12,9.8c0,0.1,0,0.1-0.1,0.2c0,0-0.1,0.1-0.2,0.1H9.3c-0.1,0-0.1,0-0.2-0.1C9,9.9,9,9.8,9,9.8V8.3c0-0.1,0-0.1,0.1-0.2
			C9.1,8,9.2,8,9.3,8h2.5c0.1,0,0.1,0,0.2,0.1c0,0,0.1,0.1,0.1,0.2V9.8z M12,6.8c0,0.1,0,0.1-0.1,0.2c0,0-0.1,0.1-0.2,0.1H9.3
			C9.2,7,9.1,7,9.1,6.9C9,6.9,9,6.8,9,6.8V5.2c0-0.1,0-0.1,0.1-0.2C9.1,5,9.2,5,9.3,5h2.5c0.1,0,0.1,0,0.2,0.1c0,0,0.1,0.1,0.1,0.2
			V6.8z M12,3.7c0,0.1,0,0.1-0.1,0.2c0,0-0.1,0.1-0.2,0.1H9.3C9.2,4,9.1,4,9.1,3.9C9,3.9,9,3.8,9,3.7V2.2c0-0.1,0-0.1,0.1-0.2
			C9.1,2,9.2,2,9.3,2h2.5c0.1,0,0.1,0,0.2,0.1c0,0,0.1,0.1,0.1,0.2V3.7z"/>
	</g>
</g>
</svg>
