<?xml version="1.0" encoding="utf-8"?>
<!-- Generator: Adobe Illustrator 19.0.0, SVG Export Plug-In . SVG Version: 6.00 Build 0)  -->
<svg version="1.1" id="Слой_1" xmlns="http://www.w3.org/2000/svg" xmlns:xlink="http://www.w3.org/1999/xlink" x="0px" y="0px"
	 viewBox="0 0 17 13" style="enable-background:new 0 0 17 13;" xml:space="preserve">
<style type="text/css">
	.st0{fill-rule:evenodd;clip-rule:evenodd;fill:#414141;}
</style>
<g id="Joutnal_x5F_icon_копия">
	<g id="XMLID_36_">
		<path id="XMLID_37_" class="st0" d="M16.4,0.7c-0.2,0-0.5,0-0.7,0V0h-0.2c-4.8,0-6.5,1.1-7,1.7C8,1.1,6.3,0,1.5,0H1.3v0.7
			c-0.2,0-0.4,0-0.7,0H0v10.7h0.6c6,0,7.2,1.3,7.4,1.6h1.1c0.2-0.3,1.4-1.6,7.4-1.6H17V0.7H16.4z M8.1,10.9
			c-0.8-0.6-2.6-1.3-6.3-1.3v-9C7,0.7,8,2,8.1,2.3V10.9z M15.1,9.6c-3.7,0-5.4,0.7-6.3,1.3V2.3C9,2,10,0.7,15.1,0.6V9.6z"/>
	</g>
</g>
</svg>
