<?xml version="1.0" encoding="utf-8"?>
<!-- Generator: Adobe Illustrator 19.0.0, SVG Export Plug-In . SVG Version: 6.00 Build 0)  -->
<svg version="1.1" id="Слой_1" xmlns="http://www.w3.org/2000/svg" xmlns:xlink="http://www.w3.org/1999/xlink" x="0px" y="0px"
	 viewBox="0 0 15 14" style="enable-background:new 0 0 15 14;" xml:space="preserve">
<style type="text/css">
	.st0{fill-rule:evenodd;clip-rule:evenodd;fill:#414141;}
</style>
<g id="Shape_3_копия">
	<g id="XMLID_35_">
		<path id="XMLID_36_" class="st0" d="M14.5,12l-3.4-3.3c0,0-0.1-0.1-0.1-0.1c0.6-0.9,0.9-1.9,0.9-3C11.8,2.5,9.3,0,6.2,0
			C3.1,0,0.6,2.5,0.6,5.5c0,3.1,2.5,5.5,5.6,5.5c1.1,0,2.2-0.3,3.1-0.9c0,0,0.1,0.1,0.1,0.1l3.4,3.3c0.2,0.2,0.5,0.3,0.8,0.3
			s0.6-0.1,0.8-0.3C14.9,13.2,14.9,12.5,14.5,12z M6.2,9.3c-2.1,0-3.9-1.7-3.9-3.8c0-2.1,1.7-3.8,3.9-3.8s3.9,1.7,3.9,3.8
			C10.1,7.6,8.3,9.3,6.2,9.3z"/>
	</g>
</g>
</svg>
