<?xml version="1.0" encoding="utf-8"?>
<!-- Generator: Adobe Illustrator 19.0.0, SVG Export Plug-In . SVG Version: 6.00 Build 0)  -->
<svg version="1.1" id="Слой_1" xmlns="http://www.w3.org/2000/svg" xmlns:xlink="http://www.w3.org/1999/xlink" x="0px" y="0px"
	 viewBox="0 0 15 15" style="enable-background:new 0 0 15 15;" xml:space="preserve">
<style type="text/css">
	.st0{fill-rule:evenodd;clip-rule:evenodd;fill:#FEFFFF;}
</style>
<g id="_x2B__x5F_icon">
	<g id="XMLID_15_">
		<path id="XMLID_16_" class="st0" d="M13,5.5H9.5V2c0-1.1-0.9-2-2-2c-1.1,0-2,0.9-2,2v3.5H2c-1.1,0-2,0.9-2,2c0,1.1,0.9,2,2,2h3.5
			V13c0,1.1,0.9,2,2,2c1.1,0,2-0.9,2-2V9.5l3.5,0c1.1,0,2-0.9,2-2C15,6.4,14.1,5.5,13,5.5z"/>
	</g>
</g>
</svg>
