<?xml version="1.0" encoding="utf-8"?>
<!-- Generator: Adobe Illustrator 19.0.0, SVG Export Plug-In . SVG Version: 6.00 Build 0)  -->
<svg version="1.1" id="Слой_1" xmlns="http://www.w3.org/2000/svg" xmlns:xlink="http://www.w3.org/1999/xlink" x="0px" y="0px"
	 viewBox="0 0 15 15" style="enable-background:new 0 0 15 15;" xml:space="preserve">
<style type="text/css">
	.st0{fill-rule:evenodd;clip-rule:evenodd;fill:#FEFFFF;}
</style>
<g id="Excel_x5F_icon">
	<g id="XMLID_69_">
		<path id="XMLID_70_" class="st0" d="M14.5,1.7H9.2v1.7H11v1.2H9.2v1.1H11v1.2H9.2v1.2H11v1.2H9.2v1.2H11v1.2H9.2v1.7h5.3
			c0.3,0,0.5-0.2,0.5-0.5V2.2C15,2,14.8,1.7,14.5,1.7z M13.8,11.5h-2.3v-1.2h2.3V11.5z M13.8,9.2h-2.3V8.1h2.3V9.2z M13.8,6.9h-2.3
			V5.8h2.3V6.9z M13.8,4.6h-2.3V3.5h2.3V4.6z M0,13.3L8.7,15V0L0,1.7V13.3z M1.8,4.6h1.6l0.8,1.8c0.1,0.1,0.1,0.3,0.2,0.5h0
			c0-0.1,0.1-0.3,0.2-0.5l0.9-1.7H7L5.2,7.5L7,10.4l-1.6,0l-1-1.9c0-0.1-0.1-0.2-0.1-0.4h0c0,0.1-0.1,0.2-0.1,0.4l-1,1.9H1.6
			l1.9-2.9L1.8,4.6z"/>
	</g>
</g>
</svg>
