<?xml version="1.0" encoding="utf-8"?>
<!-- Generator: Adobe Illustrator 19.0.0, SVG Export Plug-In . SVG Version: 6.00 Build 0)  -->
<svg version="1.1" id="Слой_1" xmlns="http://www.w3.org/2000/svg" xmlns:xlink="http://www.w3.org/1999/xlink" x="0px" y="0px"
	 viewBox="0 0 15 15" style="enable-background:new 0 0 15 15;" xml:space="preserve">
<style type="text/css">
	.st0{fill-rule:evenodd;clip-rule:evenodd;fill:#FFFFFF;}
</style>
<g id="pic_x5F_options_копия">
	<g id="XMLID_29_">
		<path id="XMLID_30_" class="st0" d="M14.4,6.4h-0.7c-0.3,0-0.7-0.2-0.7-0.6l-0.4-1c-0.2-0.3-0.1-0.7,0.1-0.9l0.5-0.5
			c0.2-0.2,0.2-0.6,0-0.8l-0.8-0.8c-0.2-0.2-0.6-0.2-0.8,0l-0.5,0.5c-0.2,0.2-0.6,0.3-0.9,0.1L9.2,2C8.9,1.9,8.7,1.6,8.7,1.3V0.6
			C8.7,0.3,8.4,0,8.1,0H6.9C6.6,0,6.3,0.3,6.3,0.6v0.7c0,0.3-0.2,0.7-0.6,0.7l-1,0.4C4.5,2.6,4.1,2.5,3.9,2.3L3.4,1.8
			c-0.2-0.2-0.6-0.2-0.8,0L1.8,2.6c-0.2,0.2-0.2,0.6,0,0.8l0.5,0.5c0.2,0.2,0.3,0.6,0.1,0.9L2,5.8C1.9,6.1,1.6,6.4,1.3,6.4l-0.7,0
			C0.2,6.4,0,6.6,0,6.9v1.2c0,0.3,0.3,0.6,0.6,0.6h0.7c0.3,0,0.7,0.2,0.7,0.6l0.4,1c0.1,0.3,0.1,0.7-0.1,0.9l-0.5,0.5
			c-0.2,0.2-0.2,0.6,0,0.8l0.8,0.8c0.2,0.2,0.6,0.2,0.8,0l0.5-0.5c0.2-0.2,0.6-0.3,0.9-0.1l1,0.4c0.3,0.1,0.6,0.4,0.6,0.7v0.7
			c0,0.3,0.3,0.6,0.6,0.6h1.2c0.3,0,0.6-0.3,0.6-0.6v-0.7c0-0.3,0.2-0.7,0.6-0.7l1-0.4c0.3-0.2,0.7-0.1,0.9,0.1l0.5,0.5
			c0.2,0.2,0.6,0.2,0.8,0l0.8-0.8c0.2-0.2,0.2-0.6,0-0.8l-0.5-0.5c-0.2-0.2-0.3-0.6-0.1-0.9l0.4-1c0.1-0.3,0.4-0.6,0.7-0.6h0.7
			c0.3,0,0.6-0.3,0.6-0.6V6.9C15,6.6,14.7,6.4,14.4,6.4z M7.5,10.4c-1.6,0-2.9-1.3-2.9-2.9c0-1.6,1.3-2.9,2.9-2.9
			c1.6,0,2.9,1.3,2.9,2.9C10.4,9.1,9.1,10.4,7.5,10.4z"/>
	</g>
</g>
</svg>
