<?xml version="1.0" encoding="utf-8"?>
<!-- Generator: Adobe Illustrator 19.0.0, SVG Export Plug-In . SVG Version: 6.00 Build 0)  -->
<svg version="1.1" id="Слой_1" xmlns="http://www.w3.org/2000/svg" xmlns:xlink="http://www.w3.org/1999/xlink" x="0px" y="0px"
	 viewBox="0 0 11 11" style="enable-background:new 0 0 11 11;" xml:space="preserve">
<style type="text/css">
	.st0{fill-rule:evenodd;clip-rule:evenodd;fill:#D86566;}
</style>
<path id="XMLID_1_" class="st0" d="M1.6,1.6c2.1-2.1,5.6-2.1,7.8,0c2.1,2.1,2.1,5.6,0,7.8c-2.1,2.1-5.6,2.1-7.8,0
	C-0.5,7.2-0.5,3.8,1.6,1.6z M8.6,4.9C8.8,4.9,9,5.1,9,5.3l0,0.5C9,6,8.8,6.2,8.6,6.2l-6.2,0C2.2,6.2,2,6,2,5.8l0-0.5
	c0-0.2,0.2-0.4,0.4-0.4L8.6,4.9z"/>
</svg>
