<?xml version="1.0" encoding="utf-8"?>
<!-- Generator: Adobe Illustrator 14.0.0, SVG Export Plug-In  -->
<!DOCTYPE svg PUBLIC "-//W3C//DTD SVG 1.1//EN" "http://www.w3.org/Graphics/SVG/1.1/DTD/svg11.dtd" [
	<!ENTITY ns_flows "http://ns.adobe.com/Flows/1.0/">
]>
<svg version="1.1"
	 xmlns="http://www.w3.org/2000/svg" xmlns:xlink="http://www.w3.org/1999/xlink" xmlns:a="http://ns.adobe.com/AdobeSVGViewerExtensions/3.0/"
	 x="0px" y="3px" width="15px" height="15px" viewBox="-3 0 15 15" enable-background="new 0 0 15 15" xml:space="preserve">
<defs>
</defs>
<g>
	<defs>
		<rect id="SVGID_1_" width="11.999" height="15"/>
	</defs>
	<clipPath id="SVGID_2_">
		<use xlink:href="#SVGID_1_"  overflow="visible"/>
	</clipPath>
	<path clip-path="url(#SVGID_2_)" fill="#017fd8" d="M10.801,8.66C10.206,7.726,8.66,7.081,6.666,6.934
		c-0.09-0.007-0.176,0.023-0.24,0.081C6.382,7.053,6.333,7.107,6.279,7.169C6.188,7.271,6.095,7.376,6.002,7.402
		C5.909,7.377,5.815,7.271,5.719,7.161C5.669,7.105,5.62,7.052,5.576,7.014C5.512,6.956,5.425,6.927,5.337,6.933
		c-1.992,0.145-3.54,0.794-4.146,1.746c-0.094,0.162-2.286,3.981-0.478,6.204C0.773,14.957,0.865,15,0.963,15H11.04
		c0.098,0,0.19-0.043,0.251-0.117C13.121,12.633,10.83,8.709,10.801,8.66 M5.944,6.548c1.863,0,3.378-1.47,3.378-3.274
		S7.807,0,5.944,0S2.565,1.469,2.565,3.273S4.081,6.548,5.944,6.548"/>
</g>
</svg>
