<?xml version="1.0" encoding="utf-8"?>
<!-- Generator: Adobe Illustrator 14.0.0, SVG Export Plug-In  -->
<!DOCTYPE svg PUBLIC "-//W3C//DTD SVG 1.1//EN" "http://www.w3.org/Graphics/SVG/1.1/DTD/svg11.dtd" [
	<!ENTITY ns_flows "http://ns.adobe.com/Flows/1.0/">
]>
<svg version="1.1"
	 xmlns="http://www.w3.org/2000/svg" xmlns:xlink="http://www.w3.org/1999/xlink" xmlns:a="http://ns.adobe.com/AdobeSVGViewerExtensions/3.0/"
	 x="0px" y="3px" width="15px" height="15px" viewBox="-3 0 15 15" enable-background="new 0 0 15 15" xml:space="preserve">
<defs>
</defs>
<g>
	<defs>
		<rect id="SVGID_1_" y="0.001" width="11.999" height="15"/>
	</defs>
	<clipPath id="SVGID_2_">
		<use xlink:href="#SVGID_1_"  overflow="visible"/>
	</clipPath>
	<path clip-path="url(#SVGID_2_)" fill="#f1f1f1" d="M10.801,8.662c-0.596-0.935-2.142-1.581-4.135-1.728
		C6.575,6.927,6.49,6.958,6.425,7.015C6.383,7.054,6.334,7.108,6.278,7.17C6.188,7.271,6.094,7.377,6.002,7.403
		C5.909,7.377,5.815,7.271,5.719,7.163c-0.05-0.056-0.099-0.11-0.142-0.148C5.511,6.958,5.425,6.927,5.337,6.934
		C3.345,7.079,1.797,7.728,1.19,8.681c-0.094,0.161-2.286,3.98-0.478,6.203c0.06,0.074,0.153,0.117,0.25,0.117H11.04
		c0.098,0,0.19-0.043,0.25-0.117C13.122,12.634,10.829,8.71,10.801,8.662 M6.586,12.647c-0.002,0.037-0.011,0.071-0.028,0.104
		L6.21,13.378C6.169,13.453,6.088,13.499,6,13.499c-0.087,0-0.169-0.046-0.211-0.121l-0.348-0.626
		c-0.018-0.033-0.027-0.067-0.027-0.104L5.291,8.159C5.288,8.083,5.325,8.011,5.387,7.966l0.471-0.333
		c0.084-0.061,0.199-0.061,0.282,0L6.61,7.966c0.063,0.044,0.101,0.117,0.098,0.193L6.586,12.647z M5.944,6.549
		c1.863,0,3.379-1.47,3.379-3.275C9.323,1.469,7.807,0,5.944,0S2.565,1.469,2.565,3.274C2.565,5.079,4.081,6.549,5.944,6.549"/>
</g>
</svg>
