<?xml version="1.0" encoding="utf-8"?>
<!-- Generator: Adobe Illustrator 19.0.0, SVG Export Plug-In . SVG Version: 6.00 Build 0)  -->
<svg version="1.1" id="Слой_1" xmlns="http://www.w3.org/2000/svg" xmlns:xlink="http://www.w3.org/1999/xlink" x="0px" y="0px"
	 viewBox="-1 -2 9 14" style="enable-background:new -1 -2 9 14;" xml:space="preserve">
<style type="text/css">
	.st0{clip-path:url(#SVGID_2_);fill:#E02D2D;}
</style>
<g>
	<g>
		<defs>
			<rect id="SVGID_1_" x="-1" y="-2" width="9" height="14"/>
		</defs>
		<clipPath id="SVGID_2_">
			<use xlink:href="#SVGID_1_"  style="overflow:visible;"/>
		</clipPath>
		<path class="st0" d="M6.5,3.6C5.2,1.9,4,0.7,3.9-1.7c0-0.1,0-0.1-0.1-0.2C3.8-2,3.7-2,3.6-2C3.5-2,3.4-1.9,3.4-1.7
			C0.6,1.4-4,9.4,1.8,11.7c2.6,1,5.6-0.4,6.1-3.4C8.2,6.6,7.4,4.9,6.5,3.6 M3,10.5c-0.4,0.1-0.9-0.1-1.2-0.3C1.2,9.8,0.8,9,0.6,8.3
			C0.5,8,0.5,7.6,0.5,7.3C0.6,6.7,0.8,6.1,1,5.5c0.1,0.5,0.3,1,0.6,1.4c0.7,0.8,2.1,1.3,2.5,2.3C4.4,9.8,3.4,10.4,3,10.5"/>
	</g>
</g>
</svg>
