<?xml version="1.0" encoding="utf-8"?>
<!-- Generator: Adobe Illustrator 14.0.0, SVG Export Plug-In  -->
<!DOCTYPE svg PUBLIC "-//W3C//DTD SVG 1.1//EN" "http://www.w3.org/Graphics/SVG/1.1/DTD/svg11.dtd" [
	<!ENTITY ns_flows "http://ns.adobe.com/Flows/1.0/">
]>
<svg version="1.1"
	 xmlns="http://www.w3.org/2000/svg" xmlns:xlink="http://www.w3.org/1999/xlink" xmlns:a="http://ns.adobe.com/AdobeSVGViewerExtensions/3.0/"
	 x="0px" y="0px" width="10px" height="14px" viewBox="0 0 10 14" enable-background="new 0 0 10 14" xml:space="preserve">
<defs>
</defs>
<g>
	<defs>
		<rect id="SVGID_1_" x="0" width="10" height="14"/>
	</defs>
	<clipPath id="SVGID_2_">
		<use xlink:href="#SVGID_1_"  overflow="visible"/>
	</clipPath>
	<path clip-path="url(#SVGID_2_)" fill="#F2F2F2" d="M6.851,10.47H3.15c-0.275,0-0.499,0.209-0.499,0.467s0.224,0.466,0.499,0.466
		h3.701c0.275,0,0.499-0.208,0.499-0.466S7.126,10.47,6.851,10.47 M4.031,13.226v0.255c0,0.287,0.248,0.52,0.555,0.52h0.829
		c0.307,0,0.556-0.232,0.556-0.52v-0.255c0.628-0.041,1.126-0.526,1.126-1.125H2.904C2.904,12.699,3.402,13.185,4.031,13.226
		 M5.001,0C2.239,0,0,2.094,0,4.677c0,1.09,0.401,2.091,1.071,2.885c0.592,0.702,1.153,1.47,1.637,2.241h4.585
		c0.489-0.779,1.04-1.532,1.638-2.241C9.599,6.768,10,5.767,10,4.677C10,2.094,7.762,0,5.001,0 M5.009,1.623
		c-1.775,0-3.219,1.35-3.219,3.01C1.79,4.891,1.567,5.1,1.291,5.1c-0.275,0-0.498-0.209-0.498-0.467
		c0-2.174,1.891-3.943,4.216-3.943c0.275,0,0.499,0.209,0.499,0.466C5.508,1.414,5.284,1.623,5.009,1.623"/>
</g>
</svg>
