<?xml version="1.0" encoding="utf-8"?>
<!-- Generator: Adobe Illustrator 14.0.0, SVG Export Plug-In  -->
<!DOCTYPE svg PUBLIC "-//W3C//DTD SVG 1.1//EN" "http://www.w3.org/Graphics/SVG/1.1/DTD/svg11.dtd" [
	<!ENTITY ns_flows "http://ns.adobe.com/Flows/1.0/">
]>
<svg version="1.1"
	 xmlns="http://www.w3.org/2000/svg" xmlns:xlink="http://www.w3.org/1999/xlink" xmlns:a="http://ns.adobe.com/AdobeSVGViewerExtensions/3.0/"
	 x="0px" y="0px" width="12px" height="14px" viewBox="0 0.001 12 14" enable-background="new 0 0.001 12 14" xml:space="preserve">
<defs>
</defs>
<g>
	<defs>
		<rect id="SVGID_1_" y="0" width="12.001" height="14.002"/>
	</defs>
	<clipPath id="SVGID_2_">
		<use xlink:href="#SVGID_1_"  overflow="visible"/>
	</clipPath>
	<path clip-path="url(#SVGID_2_)" fill="#F1F1F1" d="M2.2,1.345C1.777,0.832,2.09,0.533,2.158,0.477
		C2.276,0.384,2.295,0.217,2.2,0.101C2.104-0.015,1.929-0.034,1.809,0.059C1.518,0.283,1.131,0.91,1.764,1.679
		C2.238,2.255,1.5,3.097,1.493,3.105C1.393,3.217,1.405,3.387,1.521,3.484C1.574,3.528,1.639,3.55,1.704,3.55
		c0.078,0,0.156-0.032,0.211-0.093C1.958,3.409,2.962,2.27,2.2,1.345 M3.93,3.105c-0.1,0.112-0.088,0.282,0.029,0.379
		C4.011,3.528,4.076,3.55,4.142,3.55c0.078,0,0.155-0.032,0.21-0.093C4.395,3.409,5.399,2.27,4.637,1.345
		c-0.422-0.514-0.11-0.813-0.042-0.868c0.118-0.093,0.137-0.26,0.042-0.376C4.542-0.015,4.366-0.034,4.247,0.059
		C3.955,0.283,3.568,0.91,4.201,1.679C4.675,2.255,3.938,3.097,3.93,3.105 M6.368,3.105C6.268,3.217,6.28,3.387,6.396,3.484
		C6.449,3.528,6.514,3.55,6.579,3.55c0.078,0,0.156-0.032,0.211-0.093C6.833,3.409,7.837,2.27,7.075,1.345
		c-0.423-0.514-0.11-0.813-0.043-0.868c0.119-0.093,0.138-0.26,0.042-0.376c-0.095-0.116-0.27-0.135-0.391-0.042
		C6.392,0.283,6.006,0.91,6.638,1.679C7.113,2.255,6.375,3.097,6.368,3.105 M8.805,3.105C8.705,3.217,8.717,3.387,8.833,3.484
		C8.886,3.528,8.951,3.55,9.016,3.55c0.078,0,0.156-0.032,0.211-0.093C9.27,3.409,10.274,2.27,9.512,1.345
		C9.09,0.832,9.402,0.533,9.47,0.477c0.118-0.093,0.137-0.26,0.042-0.376C9.417-0.015,9.241-0.034,9.121,0.059
		C8.83,0.283,8.443,0.91,9.076,1.679C9.55,2.255,8.813,3.097,8.805,3.105 M0.835,4.539C0.375,4.539,0,4.899,0,5.344v7.852
		c0,0.445,0.374,0.807,0.835,0.807c0.462,0,0.836-0.361,0.836-0.807V5.344C1.671,4.899,1.297,4.539,0.835,4.539 M2.739,4.526
		c-0.462,0-0.836,0.361-0.836,0.808v7.851c0,0.446,0.374,0.807,0.836,0.807c0.461,0,0.835-0.36,0.835-0.807V5.333
		C3.574,4.887,3.2,4.526,2.739,4.526 M4.643,4.515c-0.461,0-0.835,0.361-0.835,0.806v7.853c0,0.444,0.374,0.806,0.835,0.806
		c0.462,0,0.836-0.361,0.836-0.806V5.321C5.479,4.876,5.104,4.515,4.643,4.515 M6.546,4.503c-0.462,0-0.836,0.36-0.836,0.806v7.853
		c0,0.445,0.374,0.807,0.836,0.807c0.461,0,0.835-0.361,0.835-0.807V5.309C7.381,4.864,7.007,4.503,6.546,4.503 M8.449,4.492
		c-0.461,0-0.835,0.361-0.835,0.807v7.852c0,0.445,0.374,0.807,0.835,0.807c0.462,0,0.836-0.361,0.836-0.807V5.298
		C9.285,4.853,8.912,4.492,8.449,4.492 M11.316,5.845h-0.128V5.287c0-0.445-0.374-0.807-0.835-0.807
		c-0.462,0-0.836,0.361-0.836,0.807v7.852c0,0.446,0.374,0.807,0.836,0.807c0.461,0,0.835-0.36,0.835-0.807V7.906h0.128
		c0.378,0,0.685-0.462,0.685-1.03C12.001,6.306,11.694,5.845,11.316,5.845"/>
</g>
</svg>
