<?xml version="1.0" encoding="utf-8"?>
<!-- Generator: Adobe Illustrator 14.0.0, SVG Export Plug-In  -->
<!DOCTYPE svg PUBLIC "-//W3C//DTD SVG 1.1//EN" "http://www.w3.org/Graphics/SVG/1.1/DTD/svg11.dtd" [
	<!ENTITY ns_flows "http://ns.adobe.com/Flows/1.0/">
]>
<svg version="1.1"
	 xmlns="http://www.w3.org/2000/svg" xmlns:xlink="http://www.w3.org/1999/xlink" xmlns:a="http://ns.adobe.com/AdobeSVGViewerExtensions/3.0/"
	 x="0px" y="0px" width="17px" height="19px" viewBox="0 0 17 19" enable-background="new 0 0 17 19" xml:space="preserve">
<defs>
</defs>
<g>
	<defs>
		<rect id="SVGID_1_" width="17" height="19"/>
	</defs>
	<clipPath id="SVGID_2_">
		<use xlink:href="#SVGID_1_"  overflow="visible"/>
	</clipPath>
	<path clip-path="url(#SVGID_2_)" fill-rule="evenodd" clip-rule="evenodd" fill="#F15D22" d="M0,9.381v2.278
		c0,1.369,3.791,3.022,8.5,3.022c3.891,0,7.331-1.089,8.5-2.227v-2.81c-1.816,1.242-5.285,2.014-8.5,2.014
		C5.13,11.659,1.583,10.788,0,9.381 M0,13.268v1.846C0,17.292,3.734,19,8.5,19s8.5-1.708,8.5-3.887v-1.581
		c-1.816,1.241-5.285,2.013-8.5,2.013C5.13,15.545,1.583,14.675,0,13.268 M8.5,0C3.734,0,0,1.707,0,3.887
		c0,1.369,3.792,3.022,8.5,3.022c3.892,0,7.331-1.089,8.5-2.227V3.887C17,1.707,13.266,0,8.5,0 M0,5.494v2.278
		c0,1.369,3.791,3.022,8.5,3.022c3.891,0,7.331-1.089,8.5-2.227V5.76C15.184,7,11.716,7.772,8.5,7.772
		C5.13,7.772,1.583,6.902,0,5.494"/>
</g>
</svg>
