<?xml version="1.0" encoding="utf-8"?>
<!-- Generator: Adobe Illustrator 18.1.0, SVG Export Plug-In . SVG Version: 6.00 Build 0)  -->
<svg version="1.1" id="Слой_1" xmlns="http://www.w3.org/2000/svg" xmlns:xlink="http://www.w3.org/1999/xlink" x="0px" y="0px"
	 viewBox="-291 414.9 13 13" enable-background="new -291 414.9 13 13" xml:space="preserve">
<path fill="#DFDFDF" d="M-284.5,426.9c-3,0-5.5-2.5-5.5-5.5s2.5-5.5,5.5-5.5c3,0,5.5,2.5,5.5,5.5S-281.5,426.9-284.5,426.9"/>
<g display="none">
	<g display="inline">
		<defs>
			<rect id="SVGID_1_" x="-291" y="416.8" width="10" height="16"/>
		</defs>
		<clipPath id="SVGID_2_">
			<use xlink:href="#SVGID_1_"  overflow="visible"/>
		</clipPath>
		<path clip-path="url(#SVGID_2_)" fill="#F1F1F1" d="M-282.7,423.7c-2.7-3.7-2.1-6.9-2.1-6.9c-9.5,8.5-5.3,12.8-4.9,13.1
			c0.8,0.8,1.5,1.4,1.5,2.9c0.6-0.6,2.6-2,0.7-5.2c0,0-1.7-2.4,1.3-4.7c-0.1,5.2,3.7,4.6,1.4,9.9
			C-284.8,432.8-277.8,430.6-282.7,423.7"/>
	</g>
</g>
<g>
	<g>
		<defs>
			<rect id="SVGID_3_" x="-291" y="414.9" width="13" height="13"/>
		</defs>
		<clipPath id="SVGID_4_">
			<use xlink:href="#SVGID_3_"  overflow="visible"/>
		</clipPath>
		<path clip-path="url(#SVGID_4_)" fill="#767677" d="M-284.5,414.9c-3.6,0-6.5,2.9-6.5,6.5s2.9,6.5,6.5,6.5s6.5-2.9,6.5-6.5
			S-280.9,414.9-284.5,414.9 M-284.5,426.9c-3,0-5.5-2.5-5.5-5.5s2.5-5.5,5.5-5.5c3,0,5.5,2.5,5.5,5.5S-281.5,426.9-284.5,426.9
			 M-285,421.9"/>
	</g>
</g>
<g>
	<rect x="-286.9" y="422.4" fill="#767677" width="1" height="1"/>
	<g>
		<rect x="-285" y="422.4" fill="#767677" width="1" height="1"/>
	</g>
</g>
<g>
	<rect x="-283.1" y="422.4" fill="#767677" width="1" height="1"/>
</g>
</svg>
