<?xml version="1.0" encoding="utf-8"?>
<!-- Generator: Adobe Illustrator 14.0.0, SVG Export Plug-In  -->
<!DOCTYPE svg PUBLIC "-//W3C//DTD SVG 1.1//EN" "http://www.w3.org/Graphics/SVG/1.1/DTD/svg11.dtd" [
	<!ENTITY ns_flows "http://ns.adobe.com/Flows/1.0/">
]>
<svg version="1.1"
	 xmlns="http://www.w3.org/2000/svg" xmlns:xlink="http://www.w3.org/1999/xlink" xmlns:a="http://ns.adobe.com/AdobeSVGViewerExtensions/3.0/"
	 x="0px" y="0px" width="13px" height="13px" viewBox="0 0 13 13" enable-background="new 0 0 13 13" xml:space="preserve">
<defs>
</defs>
<g>
	<defs>
		<rect id="SVGID_1_" width="13" height="13"/>
	</defs>
	<clipPath id="SVGID_2_">
		<use xlink:href="#SVGID_1_"  overflow="visible"/>
	</clipPath>
	<path clip-path="url(#SVGID_2_)" fill="#307CC0" d="M4.305,8.915H0.233L0.07,12.119c-0.006,0.121,0.036,0.239,0.117,0.327
		s0.194,0.138,0.312,0.138c0.215,0,0.303,0.056,0.448,0.146C1.131,12.844,1.383,13,1.837,13s0.706-0.156,0.891-0.271
		c0.145-0.09,0.232-0.146,0.448-0.146c0.215,0,0.302,0.056,0.447,0.146C3.809,12.844,4.061,13,4.514,13
		c0.454,0,0.706-0.156,0.89-0.271c0.145-0.09,0.233-0.146,0.448-0.146c0.158,0,0.303-0.089,0.378-0.231
		c0.075-0.144,0.067-0.317-0.019-0.453L4.305,8.915z M8.695,8.915L6.79,11.899c-0.087,0.136-0.095,0.31-0.02,0.453
		c0.075,0.143,0.22,0.231,0.378,0.231c0.215,0,0.303,0.056,0.448,0.146C7.779,12.844,8.032,13,8.485,13
		c0.454,0,0.706-0.156,0.891-0.271c0.145-0.091,0.232-0.146,0.448-0.146c0.215,0,0.303,0.056,0.448,0.146
		C10.457,12.844,10.708,13,11.163,13c0.454,0,0.706-0.156,0.891-0.271c0.145-0.09,0.232-0.146,0.448-0.146
		c0.117,0,0.23-0.05,0.311-0.138s0.123-0.206,0.117-0.327l-0.163-3.204H8.695z M10.186,2.445c-1.02,0.429-2.301,0.695-3.466,0.723
		c0,0.006-0.001,0.011-0.001,0.016c0,0.051,0.004,1.274,0.349,2.519c0.457,1.649,1.23,2.342,1.968,2.595h3.699l-0.377-7.412h0.214
		C12.809,0.885,13,0.687,13,0.442S12.809,0,12.571,0H0.429C0.192,0,0,0.198,0,0.442s0.192,0.442,0.429,0.442h0.213L0.266,8.297
		h3.699c0.738-0.253,1.511-0.945,1.968-2.595c0.345-1.244,0.349-2.468,0.349-2.519c0-0.006,0-0.011-0.001-0.017
		C5.125,3.136,3.859,2.87,2.85,2.445C1.831,2.017,1.183,1.474,0.974,0.885h0.673c0.233,0.345,0.732,0.693,1.43,0.987
		c1.011,0.426,2.298,0.68,3.441,0.68c1.144,0,2.43-0.254,3.441-0.68c0.698-0.294,1.197-0.643,1.43-0.987h0.674
		C11.853,1.474,11.205,2.017,10.186,2.445"/>
</g>
</svg>
