<?xml version="1.0" encoding="utf-8"?>
<!-- Generator: Adobe Illustrator 14.0.0, SVG Export Plug-In  -->
<!DOCTYPE svg PUBLIC "-//W3C//DTD SVG 1.1//EN" "http://www.w3.org/Graphics/SVG/1.1/DTD/svg11.dtd" [
	<!ENTITY ns_flows "http://ns.adobe.com/Flows/1.0/">
]>
<svg version="1.1"
	 xmlns="http://www.w3.org/2000/svg" xmlns:xlink="http://www.w3.org/1999/xlink" xmlns:a="http://ns.adobe.com/AdobeSVGViewerExtensions/3.0/"
	 x="0px" y="0px" width="19px" height="18px" viewBox="3.625 2.75 19 18" enable-background="new 3.625 2.75 19 18"
	 xml:space="preserve">
<defs>
</defs>
<g display="none">
	<defs>
		<rect id="SVGID_2_" y="9.935" width="10.012" height="16"/>
	</defs>
	<clipPath id="SVGID_4_" display="inline">
		<use xlink:href="#SVGID_2_"  display="none" overflow="visible"/>
	</clipPath>
	<path clip-path="url(#SVGID_4_)" fill-rule="evenodd" clip-rule="evenodd" fill="#F1F1F1" d="M8.257,16.848
		c-2.706-3.746-2.091-6.913-2.091-6.913c-9.541,8.503-5.254,12.78-4.915,13.134c0.809,0.846,1.453,1.386,1.46,2.866
		c0.603-0.634,2.594-2.041,0.734-5.155c0,0-1.661-2.439,1.344-4.73c-0.097,5.206,3.677,4.556,1.396,9.861
		C6.186,25.911,13.177,23.658,8.257,16.848"/>
</g>
<g>
	<defs>
		<rect id="SVGID_1_" x="1.854" width="20.875" height="20.99"/>
	</defs>
	<clipPath id="SVGID_5_">
		<use xlink:href="#SVGID_1_"  overflow="visible"/>
	</clipPath>
	<path clip-path="url(#SVGID_5_)" fill="#F1F1F1" d="M22.729,5.839l-1.255-1.263L19.033,7.03c-1.078-0.847-2.405-1.373-3.846-1.498
		c0.154,0.589,0.244,1.209,0.271,1.849c0.84,0.14,1.615,0.474,2.279,0.953l-3.065,3.082c-0.766,1.633-2.032,2.91-3.564,3.584
		l-0.966,0.971c-0.128-0.179-0.236-0.371-0.343-0.564c-0.369,0.07-0.747,0.116-1.134,0.116c-0.284,0-0.562-0.026-0.837-0.064
		c0.259,0.653,0.593,1.27,1.018,1.815l-2.441,2.455L7.66,20.99l2.441-2.455c1.233,0.97,2.78,1.553,4.466,1.553
		c4.012,0,7.264-3.271,7.264-7.305c0-1.694-0.579-3.251-1.543-4.49L22.729,5.839z M14.566,18.262c-1.184,0-2.276-0.384-3.17-1.029
		l7.595-7.637c0.642,0.898,1.023,1.997,1.023,3.188C20.015,15.809,17.576,18.262,14.566,18.262"/>
	<path clip-path="url(#SVGID_5_)" fill-rule="evenodd" clip-rule="evenodd" fill="#63BC46" d="M12.432,10.623
		c-0.514,0.466-1.009,0.812-1.484,1.038c-0.476,0.229-1.029,0.342-1.66,0.342c-1.033,0-1.893-0.367-2.579-1.102
		c-0.687-0.733-1.031-1.628-1.031-2.681c0-0.697,0.154-1.333,0.462-1.909s0.739-1.032,1.294-1.369
		c0.554-0.336,1.172-0.504,1.854-0.504c0.59,0,1.129,0.114,1.618,0.341c0.488,0.229,0.971,0.555,1.45,0.979l1.228-1.379
		c-0.575-0.53-1.197-0.937-1.866-1.219c-0.669-0.281-1.474-0.424-2.415-0.424c-0.809,0-1.567,0.146-2.274,0.434
		C6.322,3.46,5.724,3.851,5.236,4.344C4.747,4.837,4.363,5.419,4.083,6.09C3.804,6.761,3.664,7.471,3.664,8.221
		c0,1.015,0.24,1.94,0.721,2.779c0.481,0.837,1.147,1.496,1.999,1.979s1.8,0.724,2.843,0.724c0.661,0,1.265-0.078,1.812-0.237
		s1.02-0.369,1.42-0.628c0.399-0.26,0.802-0.593,1.209-0.998L12.432,10.623z"/>
</g>
</svg>
