<?xml version="1.0" encoding="utf-8"?>
<!-- Generator: Adobe Illustrator 14.0.0, SVG Export Plug-In  -->
<!DOCTYPE svg PUBLIC "-//W3C//DTD SVG 1.1//EN" "http://www.w3.org/Graphics/SVG/1.1/DTD/svg11.dtd" [
	<!ENTITY ns_flows "http://ns.adobe.com/Flows/1.0/">
]>
<svg version="1.1"
	 xmlns="http://www.w3.org/2000/svg" xmlns:xlink="http://www.w3.org/1999/xlink" xmlns:a="http://ns.adobe.com/AdobeSVGViewerExtensions/3.0/"
	 x="0px" y="0px" width="17px" height="17px" viewBox="0 0 17 17" enable-background="new 0 0 17 17" xml:space="preserve">
<defs>
</defs>
<g>
	<defs>
		<rect id="SVGID_1_" width="17.268" height="16.813"/>
	</defs>
	<clipPath id="SVGID_2_">
		<use xlink:href="#SVGID_1_"  overflow="visible"/>
	</clipPath>
	<path clip-path="url(#SVGID_2_)" fill="#414141" d="M5.804,11.291H4v-2h0.566c-0.128-0.322-0.235-0.656-0.319-1H4v-2h0.011
		c0.001-0.337,0.024-0.67,0.066-1H4v-2h0.641c0.375-0.805,0.922-1.496,1.652-2H0v14h7v-3.065C6.555,11.98,6.154,11.669,5.804,11.291
		 M3,11.291H1v-2h2V11.291z M3,8.291H1v-2h2V8.291z M3,5.291H1v-2h2V5.291z"/>
	<path clip-path="url(#SVGID_2_)" fill="#F1F1F1" d="M11.851,11.761H8.149c-0.275,0-0.499,0.209-0.499,0.467
		c0,0.259,0.224,0.467,0.499,0.467h3.701c0.275,0,0.499-0.208,0.499-0.467C12.35,11.97,12.125,11.761,11.851,11.761 M9.031,14.518
		v0.255c0,0.286,0.248,0.519,0.555,0.519h0.829c0.307,0,0.556-0.232,0.556-0.519v-0.255c0.628-0.042,1.126-0.526,1.126-1.126H7.904
		C7.904,13.991,8.401,14.476,9.031,14.518 M10,1.291C7.239,1.291,5,3.385,5,5.968C5,7.058,5.4,8.059,6.071,8.853
		c0.592,0.702,1.153,1.471,1.637,2.241h4.585c0.489-0.778,1.04-1.532,1.638-2.241C14.599,8.059,15,7.058,15,5.968
		C15,3.385,12.762,1.291,10,1.291 M10.009,2.914c-1.775,0-3.219,1.35-3.219,3.01c0,0.258-0.223,0.467-0.499,0.467
		c-0.275,0-0.498-0.209-0.498-0.467c0-2.174,1.891-3.942,4.216-3.942c0.275,0,0.499,0.209,0.499,0.466
		C10.508,2.705,10.284,2.914,10.009,2.914"/>
</g>
</svg>
