<?xml version="1.0" encoding="utf-8"?>
<!-- Generator: Adobe Illustrator 14.0.0, SVG Export Plug-In  -->
<!DOCTYPE svg PUBLIC "-//W3C//DTD SVG 1.1//EN" "http://www.w3.org/Graphics/SVG/1.1/DTD/svg11.dtd" [
	<!ENTITY ns_flows "http://ns.adobe.com/Flows/1.0/">
]>
<svg version="1.1"
	 xmlns="http://www.w3.org/2000/svg" xmlns:xlink="http://www.w3.org/1999/xlink" xmlns:a="http://ns.adobe.com/AdobeSVGViewerExtensions/3.0/"
	 x="0px" y="0px" width="17px" height="17px" viewBox="5.729 0 17 17" enable-background="new 5.729 0 17 17" xml:space="preserve">
<defs>
</defs>
<g display="none">
	<defs>
		<rect id="SVGID_1_" y="5.945" width="10.012" height="16"/>
	</defs>
	<clipPath id="SVGID_2_" display="inline">
		<use xlink:href="#SVGID_1_"  display="none" overflow="visible"/>
	</clipPath>
	<path clip-path="url(#SVGID_2_)" fill-rule="evenodd" clip-rule="evenodd" fill="#F1F1F1" d="M8.257,12.858
		C5.551,9.112,6.167,5.945,6.167,5.945c-9.541,8.503-5.254,12.78-4.915,13.134c0.809,0.846,1.453,1.386,1.46,2.866
		c0.603-0.634,2.594-2.041,0.734-5.155c0,0-1.661-2.439,1.344-4.73c-0.097,5.206,3.677,4.556,1.396,9.861
		C6.186,21.92,13.177,19.667,8.257,12.858"/>
</g>
<path fill="#414141" d="M15.729,7v10h2v-4h3v4h2V7H15.729z M15.729,6h7V5h-7V6z M6.729,10h3v3.001h-3V10z M10.729,10h3v3.001h-3V10z
	 M6.729,6h3v3h-3V6z M10.729,6h3v3h-3V6z M6.729,2h3v3.001h-3V2z M10.729,2h3v3.001h-3V2z M5.729,17h9V0h-9V17z"/>
</svg>
