<?xml version="1.0" encoding="utf-8"?>
<!-- Generator: Adobe Illustrator 14.0.0, SVG Export Plug-In  -->
<!DOCTYPE svg PUBLIC "-//W3C//DTD SVG 1.1//EN" "http://www.w3.org/Graphics/SVG/1.1/DTD/svg11.dtd" [
	<!ENTITY ns_flows "http://ns.adobe.com/Flows/1.0/">
]>
<svg version="1.1"
	 xmlns="http://www.w3.org/2000/svg" xmlns:xlink="http://www.w3.org/1999/xlink" xmlns:a="http://ns.adobe.com/AdobeSVGViewerExtensions/3.0/"
	 x="0px" y="0px" width="17px" height="18px" viewBox="0 0 17 18" enable-background="new 0 0 17 18" xml:space="preserve">
<defs>
</defs>
<g>
	<defs>
		<rect id="SVGID_1_" width="16.51" height="17.897"/>
	</defs>
	<clipPath id="SVGID_2_">
		<use xlink:href="#SVGID_1_"  overflow="visible"/>
	</clipPath>
	<path clip-path="url(#SVGID_2_)" fill="#414141" d="M4.742,11.82H4v-2h0.624c0.014-0.339,0.048-0.672,0.094-1H4v-2h1.19
		c0.116-0.344,0.248-0.677,0.392-1H4v-2h2v1.152c0.303-0.562,0.64-1.084,1-1.559V1.82H0v14h6.297
		C5.445,14.484,4.953,13.136,4.742,11.82 M3,11.82H1v-2h2V11.82z M3,8.82H1v-2h2V8.82z M3,5.82H1v-2h2V5.82z"/>
	<path clip-path="url(#SVGID_2_)" fill-rule="evenodd" clip-rule="evenodd" fill="#307CC0" d="M13.507,7.453
		c-1.284-1.777-2.503-2.976-2.611-5.329c0-0.07-0.022-0.116-0.066-0.162c-0.021-0.115-0.13-0.185-0.239-0.115
		c-0.131,0-0.239,0.093-0.239,0.254C7.61,5.238,2.976,13.198,8.807,15.482c2.633,1.038,5.613-0.37,6.136-3.415
		C15.225,10.429,14.42,8.699,13.507,7.453 M10.047,14.328c-0.413,0.138-0.87-0.092-1.218-0.323
		c-0.631-0.392-1.023-1.177-1.219-1.869c-0.087-0.346-0.131-0.691-0.109-1.037c0.131-0.601,0.305-1.177,0.501-1.754
		c0.108,0.508,0.326,1.016,0.631,1.385c0.696,0.807,2.11,1.292,2.502,2.307C11.374,13.659,10.439,14.19,10.047,14.328"/>
</g>
</svg>
