<?xml version="1.0" encoding="utf-8"?>
<!-- Generator: Adobe Illustrator 14.0.0, SVG Export Plug-In  -->
<!DOCTYPE svg PUBLIC "-//W3C//DTD SVG 1.1//EN" "http://www.w3.org/Graphics/SVG/1.1/DTD/svg11.dtd" [
	<!ENTITY ns_flows "http://ns.adobe.com/Flows/1.0/">
]>
<svg version="1.1"
	 xmlns="http://www.w3.org/2000/svg" xmlns:xlink="http://www.w3.org/1999/xlink" xmlns:a="http://ns.adobe.com/AdobeSVGViewerExtensions/3.0/"
	 x="0px" y="0px" width="13px" height="15px" viewBox="0 0 13 15" enable-background="new 0 0 13 15" xml:space="preserve">
<defs>
</defs>
<g>
	<defs>
		<rect id="SVGID_1_" width="13" height="15"/>
	</defs>
	<clipPath id="SVGID_2_">
		<use xlink:href="#SVGID_1_"  overflow="visible"/>
	</clipPath>
	<path clip-path="url(#SVGID_2_)" fill="#F1F1F1" d="M12,3c0.552,0,1-0.448,1-1V1c0-0.552-0.448-1-1-1H1C0.448,0,0,0.448,0,1v1
		c0,0.552,0.448,1,1,1h5v1H1C0.448,4,0,4.448,0,5v1c0,0.552,0.448,1,1,1h5v1H1C0.448,8,0,8.448,0,9v1c0,0.552,0.448,1,1,1h5v1.092
		C5.576,12.243,5.243,12.576,5.092,13H0v1h5.092c0.206,0.581,0.756,1,1.408,1s1.202-0.419,1.408-1H13v-1H7.908
		C7.757,12.576,7.424,12.243,7,12.092V11h5c0.552,0,1-0.448,1-1V9c0-0.552-0.448-1-1-1H7V7h5c0.552,0,1-0.448,1-1V5
		c0-0.552-0.448-1-1-1H7V3H12z M11,1h1v1h-1V1z M11,9h1v1h-1V9z M11,5h1v1h-1V5z"/>
</g>
</svg>
