<?xml version="1.0" encoding="utf-8"?>
<!-- Generator: Adobe Illustrator 14.0.0, SVG Export Plug-In  -->
<!DOCTYPE svg PUBLIC "-//W3C//DTD SVG 1.1//EN" "http://www.w3.org/Graphics/SVG/1.1/DTD/svg11.dtd" [
	<!ENTITY ns_flows "http://ns.adobe.com/Flows/1.0/">
]>
<svg version="1.1"
	 xmlns="http://www.w3.org/2000/svg" xmlns:xlink="http://www.w3.org/1999/xlink" xmlns:a="http://ns.adobe.com/AdobeSVGViewerExtensions/3.0/"
	 x="0px" y="0px" width="12px" height="15px" viewBox="7.001 0 12 15" enable-background="new 7.001 0 12 15" xml:space="preserve">
<defs>
</defs>
<g display="none">
	<defs>
		<rect id="SVGID_2_" y="4.153" width="10.012" height="16"/>
	</defs>
	<clipPath id="SVGID_4_" display="inline">
		<use xlink:href="#SVGID_2_"  display="none" overflow="visible"/>
	</clipPath>
	<path clip-path="url(#SVGID_4_)" fill-rule="evenodd" clip-rule="evenodd" fill="#F1F1F1" d="M8.257,11.066
		C5.551,7.32,6.167,4.153,6.167,4.153c-9.541,8.503-5.254,12.78-4.915,13.134c0.809,0.846,1.453,1.386,1.46,2.866
		c0.603-0.634,2.594-2.041,0.734-5.155c0,0-1.661-2.439,1.344-4.73c-0.097,5.206,3.677,4.556,1.396,9.861
		C6.186,20.129,13.177,17.876,8.257,11.066"/>
</g>
<g>
	<defs>
		<rect id="SVGID_1_" x="7.001" width="11.999" height="15"/>
	</defs>
	<clipPath id="SVGID_5_">
		<use xlink:href="#SVGID_1_"  overflow="visible"/>
	</clipPath>
	<path clip-path="url(#SVGID_5_)" fill="#F1F1F1" d="M13.001,9.833c0.224,0,0.406-0.192,0.406-0.429V8.691
		c0-0.236-0.182-0.428-0.406-0.428c-0.225,0-0.407,0.191-0.407,0.428v0.713C12.594,9.641,12.776,9.833,13.001,9.833 M13.001,7.609
		c0.224,0,0.406-0.191,0.406-0.428v-1.51c0-0.237-0.182-0.429-0.406-0.429c-0.225,0-0.407,0.191-0.407,0.429v1.51
		C12.594,7.418,12.776,7.609,13.001,7.609 M13.001,4.59c0.224,0,0.406-0.192,0.406-0.429v-1.51c0-0.236-0.182-0.428-0.406-0.428
		c-0.225,0-0.407,0.191-0.407,0.428v1.51C12.594,4.397,12.776,4.59,13.001,4.59 M13.001,1.568c0.224,0,0.406-0.19,0.406-0.428V0.428
		C13.407,0.191,13.225,0,13.001,0c-0.225,0-0.407,0.191-0.407,0.428v0.713C12.594,1.378,12.776,1.568,13.001,1.568 M10.901,8.322
		c0.086,0.436,0.076,0.73,0.076,1.082c0,0.236,0.182,0.429,0.406,0.429c0.225,0,0.407-0.192,0.407-0.429
		c0-0.356,0.012-0.727-0.094-1.257c-0.046-0.231-0.261-0.38-0.481-0.331C10.995,7.864,10.854,8.092,10.901,8.322 M9.12,5.296
		C9.195,5.073,9.085,4.828,8.873,4.75C8.404,4.573,7.911,4.484,7.408,4.483c-0.225,0-0.406,0.191-0.407,0.427
		c0,0.237,0.182,0.43,0.406,0.43c0.41,0,0.812,0.073,1.194,0.216C8.812,5.635,9.045,5.519,9.12,5.296 M10.454,7.14
		c0.117,0.202,0.367,0.265,0.559,0.142c0.191-0.124,0.251-0.387,0.134-0.589c-0.261-0.448-0.59-0.844-0.978-1.176
		C9.995,5.367,9.738,5.396,9.597,5.578C9.455,5.762,9.482,6.031,9.656,6.181C9.972,6.451,10.241,6.774,10.454,7.14 M14.989,7.281
		c0.192,0.123,0.442,0.061,0.559-0.142c0.213-0.365,0.481-0.688,0.798-0.959c0.174-0.149,0.201-0.419,0.059-0.603
		c-0.142-0.183-0.398-0.211-0.572-0.062c-0.388,0.332-0.717,0.728-0.978,1.176C14.737,6.895,14.797,7.157,14.989,7.281
		 M18.594,4.483L18.594,4.483c-0.503,0.001-0.996,0.09-1.466,0.267c-0.211,0.078-0.322,0.323-0.246,0.546
		c0.075,0.224,0.308,0.339,0.519,0.26c0.382-0.143,0.783-0.216,1.193-0.216c0.225,0,0.407-0.192,0.406-0.43
		C19,4.675,18.818,4.483,18.594,4.483 M14.618,9.833c0.225,0,0.407-0.192,0.407-0.429c0-0.353-0.011-0.646,0.076-1.082
		c0.046-0.23-0.094-0.458-0.314-0.506c-0.22-0.049-0.436,0.1-0.482,0.331c-0.106,0.531-0.094,0.905-0.094,1.257
		C14.212,9.641,14.394,9.833,14.618,9.833 M14.365,10.405h-2.702v0.574h-3.95v3.473h3.95V15h2.702v-0.548h3.95v-3.473h-3.95V10.405z
		"/>
</g>
</svg>
