<?xml version="1.0" encoding="utf-8"?>
<!-- Generator: Adobe Illustrator 14.0.0, SVG Export Plug-In  -->
<!DOCTYPE svg PUBLIC "-//W3C//DTD SVG 1.1//EN" "http://www.w3.org/Graphics/SVG/1.1/DTD/svg11.dtd" [
	<!ENTITY ns_flows "http://ns.adobe.com/Flows/1.0/">
]>
<svg version="1.1"
	 xmlns="http://www.w3.org/2000/svg" xmlns:xlink="http://www.w3.org/1999/xlink" xmlns:a="http://ns.adobe.com/AdobeSVGViewerExtensions/3.0/"
	 x="0px" y="0px" width="9px" height="14px" viewBox="0 0 9 14" enable-background="new 0 0 9 14" xml:space="preserve">
<defs>
</defs>
<g>
	<defs>
		<rect id="SVGID_1_" y="0" width="9" height="14.001"/>
	</defs>
	<clipPath id="SVGID_2_">
		<use xlink:href="#SVGID_1_"  overflow="visible"/>
	</clipPath>
	<path clip-path="url(#SVGID_2_)" fill-rule="evenodd" clip-rule="evenodd" fill="#307CC0" d="M7.507,5.634
		c-1.284-1.777-2.503-2.977-2.611-5.33c0-0.069-0.022-0.115-0.066-0.161C4.809,0.028,4.7-0.042,4.591,0.028
		c-0.131,0-0.239,0.093-0.239,0.253C1.61,3.419-3.024,11.379,2.807,13.664c2.633,1.037,5.613-0.37,6.136-3.415
		C9.225,8.61,8.42,6.88,7.507,5.634 M4.047,12.509c-0.413,0.138-0.87-0.092-1.218-0.323c-0.631-0.392-1.023-1.177-1.219-1.869
		C1.523,9.971,1.48,9.625,1.501,9.279c0.131-0.6,0.305-1.176,0.501-1.753C2.11,8.033,2.328,8.542,2.633,8.911
		c0.696,0.807,2.11,1.292,2.502,2.307C5.374,11.84,4.439,12.372,4.047,12.509"/>
</g>
</svg>
