<?xml version="1.0" encoding="utf-8"?>
<!-- Generator: Adobe Illustrator 14.0.0, SVG Export Plug-In  -->
<!DOCTYPE svg PUBLIC "-//W3C//DTD SVG 1.1//EN" "http://www.w3.org/Graphics/SVG/1.1/DTD/svg11.dtd" [
	<!ENTITY ns_flows "http://ns.adobe.com/Flows/1.0/">
]>
<svg version="1.1"
	 xmlns="http://www.w3.org/2000/svg" xmlns:xlink="http://www.w3.org/1999/xlink" xmlns:a="http://ns.adobe.com/AdobeSVGViewerExtensions/3.0/"
	 x="0px" y="0px" width="13px" height="12px" viewBox="0 0 13 12" enable-background="new 0 0 13 12" xml:space="preserve">
<defs>
</defs>
<g>
	<defs>
		<rect id="SVGID_1_" width="13" height="12"/>
	</defs>
	<clipPath id="SVGID_2_">
		<use xlink:href="#SVGID_1_"  overflow="visible"/>
	</clipPath>
	<path clip-path="url(#SVGID_2_)" fill-rule="evenodd" clip-rule="evenodd" fill="#307CC0" d="M12.213,0H9.382
		C8.946,0,8.594,0.358,8.594,0.8v2.076H6.55c-0.436,0-0.788,0.357-0.788,0.799v2.076H3.718c-0.435,0-0.788,0.358-0.788,0.8v2.176
		H0.788c-0.209,0-0.41,0.084-0.557,0.234C0.083,9.111,0,9.315,0,9.527V11.2C0,11.642,0.353,12,0.788,12h11.425
		c0.435,0,0.788-0.358,0.788-0.8V0.8C13.001,0.358,12.648,0,12.213,0"/>
</g>
</svg>
