<?xml version="1.0" encoding="utf-8"?>
<!-- Generator: Adobe Illustrator 14.0.0, SVG Export Plug-In  -->
<!DOCTYPE svg PUBLIC "-//W3C//DTD SVG 1.1//EN" "http://www.w3.org/Graphics/SVG/1.1/DTD/svg11.dtd" [
	<!ENTITY ns_flows "http://ns.adobe.com/Flows/1.0/">
]>
<svg version="1.1"
	 xmlns="http://www.w3.org/2000/svg" xmlns:xlink="http://www.w3.org/1999/xlink" xmlns:a="http://ns.adobe.com/AdobeSVGViewerExtensions/3.0/"
	 x="0px" y="0px" width="19px" height="18px" viewBox="4.103 1.164 19 18" enable-background="new 4.103 1.164 19 18"
	 xml:space="preserve">
<defs>
</defs>
<g display="none">
	<defs>
		<rect id="SVGID_2_" y="8.109" width="10.012" height="16"/>
	</defs>
	<clipPath id="SVGID_4_" display="inline">
		<use xlink:href="#SVGID_2_"  display="none" overflow="visible"/>
	</clipPath>
	<path clip-path="url(#SVGID_4_)" fill-rule="evenodd" clip-rule="evenodd" fill="#F1F1F1" d="M8.257,15.022
		c-2.706-3.746-2.091-6.913-2.091-6.913c-9.541,8.503-5.254,12.78-4.915,13.134c0.809,0.846,1.453,1.386,1.46,2.866
		c0.603-0.634,2.594-2.041,0.734-5.155c0,0-1.661-2.439,1.344-4.73c-0.097,5.206,3.677,4.556,1.396,9.861
		C6.186,24.084,13.177,21.832,8.257,15.022"/>
</g>
<g>
	<defs>
		<rect id="SVGID_1_" x="2.762" width="19.967" height="19.164"/>
	</defs>
	<clipPath id="SVGID_5_">
		<use xlink:href="#SVGID_1_"  overflow="visible"/>
	</clipPath>
	<path clip-path="url(#SVGID_5_)" fill="#017FD8" d="M22.729,4.013L21.474,2.75l-2.441,2.454c-1.161-0.912-2.606-1.463-4.177-1.526
		c-0.063,0.567-0.247,1.179-0.602,1.816c0.104-0.006,0.207-0.015,0.313-0.015c1.184,0,2.276,0.383,3.17,1.027l-2.302,2.315
		c0.216,0.862,0.158,1.751-0.009,2.533l3.566-3.586c0.642,0.898,1.023,1.997,1.023,3.188c0,3.025-2.439,5.479-5.448,5.479
		c-1.184,0-2.276-0.385-3.17-1.029l1.701-1.71h-2.51l-0.446,0.448c-0.102-0.143-0.184-0.297-0.272-0.448H7.857
		c0.256,0.629,0.578,1.224,0.989,1.751l-2.441,2.455l1.255,1.262l2.441-2.454c1.232,0.969,2.78,1.552,4.466,1.552
		c4.012,0,7.264-3.271,7.264-7.305c0-1.694-0.579-3.251-1.543-4.491L22.729,4.013z"/>
	<path clip-path="url(#SVGID_5_)" fill-rule="evenodd" clip-rule="evenodd" fill="#F8961D" d="M13.296,7.797
		c-0.394-0.446-0.959-0.794-1.693-1.043c1.099-0.572,1.649-1.436,1.649-2.589c0-0.784-0.258-1.435-0.773-1.95
		c-0.682-0.682-1.688-1.023-3.019-1.023H4.283v11.598h5.341c1.308,0,2.346-0.275,3.113-0.825s1.15-1.334,1.15-2.354
		C13.887,8.848,13.69,8.243,13.296,7.797 M6.278,2.995h2.92c0.643,0,1.142,0.131,1.496,0.391c0.354,0.261,0.531,0.62,0.531,1.077
		c0,0.527-0.195,0.926-0.583,1.198c-0.389,0.271-0.921,0.406-1.597,0.406H6.278V2.995z M11.277,10.568
		c-0.389,0.278-0.934,0.416-1.637,0.416H6.278V7.807h3.209c0.789,0,1.381,0.135,1.778,0.404s0.595,0.652,0.595,1.148
		C11.86,9.888,11.666,10.291,11.277,10.568"/>
</g>
</svg>
