<?xml version="1.0" encoding="utf-8"?>
<!-- Generator: Adobe Illustrator 14.0.0, SVG Export Plug-In  -->
<!DOCTYPE svg PUBLIC "-//W3C//DTD SVG 1.1//EN" "http://www.w3.org/Graphics/SVG/1.1/DTD/svg11.dtd" [
	<!ENTITY ns_flows "http://ns.adobe.com/Flows/1.0/">
]>
<svg version="1.1"
	 xmlns="http://www.w3.org/2000/svg" xmlns:xlink="http://www.w3.org/1999/xlink" xmlns:a="http://ns.adobe.com/AdobeSVGViewerExtensions/3.0/"
	 x="0px" y="0px" width="11px" height="13px" viewBox="7.558 0 11 13" enable-background="new 7.558 0 11 13" xml:space="preserve">
<defs>
</defs>
<g display="none">
	<defs>
		<rect id="SVGID_2_" y="2.058" width="10.012" height="16"/>
	</defs>
	<clipPath id="SVGID_4_" display="inline">
		<use xlink:href="#SVGID_2_"  display="none" overflow="visible"/>
	</clipPath>
	<path clip-path="url(#SVGID_4_)" fill-rule="evenodd" clip-rule="evenodd" fill="#F1F1F1" d="M8.257,8.971
		C5.551,5.225,6.167,2.058,6.167,2.058c-9.541,8.503-5.254,12.78-4.915,13.134c0.809,0.846,1.453,1.386,1.46,2.866
		c0.603-0.634,2.594-2.041,0.734-5.155c0,0-1.661-2.439,1.344-4.73c-0.097,5.206,3.677,4.556,1.396,9.861
		C6.186,18.033,13.177,15.78,8.257,8.971"/>
</g>
<g>
	<defs>
		<rect id="SVGID_1_" x="7.558" width="11.442" height="12.904"/>
	</defs>
	<clipPath id="SVGID_5_">
		<use xlink:href="#SVGID_1_"  overflow="visible"/>
	</clipPath>
	<path clip-path="url(#SVGID_5_)" fill="#414141" d="M12.423,12.904h2v-1h-2V12.904z M17.423,1.904
		c0.147-1.345-2.081-2.905-3.673-0.695C12.839-1.079,8.971,0.237,9.611,2.21C6.956,2.014,7.242,4.502,8.423,4.904
		c-0.184,2.159,1.518,3.24,3,2c1.128,0.106,1.243,0.451,2,4c0.346-3.136,0.683-5.212,2-5C18.48,9.357,20.602,0.944,17.423,1.904"/>
</g>
</svg>
