<?xml version="1.0" encoding="utf-8"?>
<!-- Generator: Adobe Illustrator 19.0.0, SVG Export Plug-In . SVG Version: 6.00 Build 0)  -->
<svg version="1.1" id="Слой_1" xmlns="http://www.w3.org/2000/svg" xmlns:xlink="http://www.w3.org/1999/xlink" x="0px" y="0px"
	 viewBox="-1 0 13 15" style="enable-background:new -1 0 13 15;" xml:space="preserve">
<style type="text/css">
	.st0{fill:#F1F1F1;}
</style>
<g id="Door">
	<g id="XMLID_43_">
		<path id="XMLID_44_" class="st0" d="M8,2v10l2.4,0.6V1.5L8,2z M11.5,0H4.6C4.3,0,4.1,0.2,4.1,0.5V2H5V1h6v12.3H5.8v1h5.7
			c0.3,0,0.5-0.2,0.5-0.5V0.5C12,0.2,11.7,0,11.5,0z M4.6,5.7c0.7,0,1.3-0.6,1.3-1.3S5.3,3.1,4.6,3.1S3.3,3.7,3.3,4.4
			C3.3,5.1,3.9,5.7,4.6,5.7z M3.5,8.5C4,8.8,4.5,9,5.1,9c0.3,0,1.3-0.2,1.6-0.3s0.4-0.2,0.5-0.4c0.1-0.3,0-0.6,0-0.6
			c-0.1-0.5-0.6-0.6-1-0.5C5.7,7.4,4.9,7.6,4.4,7.3C4.2,7.1,4.1,6.9,4,6.7c0.1-0.4,0-0.8-0.2-1.2C3.3,5,2.5,4.9,2,5.4
			C1.8,5.5,1,6.2,0.5,7.6C0.3,7.7,0,7.8-0.3,7.9c-0.5,0-0.8,0.4-0.7,0.8c0,0.4,0.4,0.7,0.7,0.7h0.1c0.1,0,0.2,0,0.4-0.1
			c0,0.2,0,0.5,0,0.7c0,0.3,0.1,0.6,0.4,0.9c0.1,0.4,0.3,1.1,0.1,1.6c-0.1,0.4-0.4,0.7-0.8,0.9s-0.5,0.6-0.3,1
			c0.1,0.3,0.4,0.4,0.7,0.4c0.1,0,0.2,0,0.3-0.1c0.8-0.4,1.3-1,1.5-1.8c0.2-0.6,0.2-1.3,0.1-1.8c0.1,0,0.1-0.1,0.1-0.1
			c0.5,0.6,1,1.6,0.7,3.1c-0.1,0.4,0.2,0.8,0.6,0.9c0.1,0,0.1,0,0.2,0c0.3,0,0.7-0.2,0.7-0.6c0.5-2.5-0.7-4.2-1.7-5
			C2.9,8.9,3,8.5,3.2,8.1C3.2,8.2,3.3,8.4,3.5,8.5z"/>
	</g>
</g>
</svg>
