<?xml version="1.0" encoding="utf-8"?>
<!-- Generator: Adobe Illustrator 19.0.0, SVG Export Plug-In . SVG Version: 6.00 Build 0)  -->
<svg version="1.1" id="Слой_1" xmlns="http://www.w3.org/2000/svg" xmlns:xlink="http://www.w3.org/1999/xlink" x="0px" y="0px"
	 viewBox="0 0 15 15" style="enable-background:new 0 0 15 15;" xml:space="preserve">
<style type="text/css">
	.st0{fill-rule:evenodd;clip-rule:evenodd;fill:#C14E45;}
</style>
<g id="Gas">
	<g id="XMLID_45_">
		<path id="XMLID_46_" class="st0" d="M7,4H2C0.9,4,0,4.9,0,6v7c0,1.1,0.9,2,2,2h5c1.1,0,2-0.9,2-2V9l-3,1L2,8l4,1l3-2V6
			C9,4.9,8.1,4,7,4z M7,0H2v3h5V0z M11,8v1h4V8H11z M9.7,10.4l3,2l0.6-0.8l-3-2L9.7,10.4z M13.3,5.4l-0.6-0.8l-3,2l0.6,0.8L13.3,5.4
			z"/>
	</g>
</g>
</svg>
