<?xml version="1.0" encoding="utf-8"?>
<!-- Generator: Adobe Illustrator 14.0.0, SVG Export Plug-In  -->
<!DOCTYPE svg PUBLIC "-//W3C//DTD SVG 1.1//EN" "http://www.w3.org/Graphics/SVG/1.1/DTD/svg11.dtd" [
	<!ENTITY ns_flows "http://ns.adobe.com/Flows/1.0/">
]>
<svg version="1.1"
	 xmlns="http://www.w3.org/2000/svg" xmlns:xlink="http://www.w3.org/1999/xlink" xmlns:a="http://ns.adobe.com/AdobeSVGViewerExtensions/3.0/"
	 x="0px" y="0px" width="40px" height="40px" viewBox="0 0.001 40 40" enable-background="new 0 0.001 40 40" xml:space="preserve">
<defs>
</defs>
<g>
	<defs>
		<rect id="SVGID_2_" y="0.001" width="39.841" height="39.847"/>
	</defs>
	<clipPath id="SVGID_3_">
		<use xlink:href="#SVGID_2_"  overflow="visible"/>
	</clipPath>
	<path clip-path="url(#SVGID_3_)" fill-rule="evenodd" clip-rule="evenodd" fill="#EBEBEB" d="M19.92,0C8.918,0,0,8.92,0,19.925
		c0,11.003,8.918,19.923,19.92,19.923s19.92-8.92,19.92-19.923C39.84,8.92,30.922,0,19.92,0"/>
	<path clip-path="url(#SVGID_3_)" fill="#414141" d="M19.178,23.157h-1.804v-2h0.566c-0.128-0.322-0.235-0.656-0.319-1h-0.247v-2
		h0.011c0-0.337,0.024-0.67,0.066-1h-0.077v-2h0.641c0.375-0.805,0.922-1.496,1.652-2h-6.293v14h7v-3.065
		C19.929,23.847,19.528,23.534,19.178,23.157 M16.374,23.157h-2v-2h2V23.157z M16.374,20.157h-2v-2h2V20.157z M16.374,17.157h-2v-2
		h2V17.157z"/>
	<path display="none" clip-path="url(#SVGID_3_)" fill="#F8961D" d="M25.225,23.628h-3.701c-0.275,0-0.499,0.209-0.499,0.467
		s0.224,0.466,0.499,0.466h3.701c0.275,0,0.499-0.208,0.499-0.466S25.5,23.628,25.225,23.628 M22.405,26.385v0.254
		c0,0.287,0.248,0.519,0.555,0.519h0.829c0.307,0,0.556-0.231,0.556-0.519v-0.254c0.628-0.042,1.126-0.527,1.126-1.126h-4.193
		C21.278,25.857,21.775,26.343,22.405,26.385 M23.375,13.157c-2.762,0-5.001,2.094-5.001,4.677c0,1.091,0.401,2.092,1.071,2.886
		c0.592,0.702,1.153,1.47,1.637,2.241h4.585c0.489-0.779,1.04-1.532,1.638-2.241c0.668-0.794,1.069-1.795,1.069-2.886
		C28.374,15.251,26.136,13.157,23.375,13.157 M23.383,14.78c-1.775,0-3.219,1.351-3.219,3.01c0,0.259-0.223,0.468-0.499,0.468
		c-0.275,0-0.498-0.209-0.498-0.468c0-2.174,1.891-3.942,4.216-3.942c0.275,0,0.499,0.209,0.499,0.466
		C23.882,14.571,23.658,14.78,23.383,14.78"/>
	<g clip-path="url(#SVGID_3_)">
		<defs>
			<rect id="SVGID_1_" x="13.362" y="11.351" width="16.51" height="17.897"/>
		</defs>
		<clipPath id="SVGID_4_">
			<use xlink:href="#SVGID_1_"  overflow="visible"/>
		</clipPath>
		<path clip-path="url(#SVGID_4_)" fill="#414141" d="M18.104,23.171h-0.742v-2h0.624c0.014-0.339,0.048-0.672,0.094-1h-0.718v-2
			h1.19c0.116-0.344,0.248-0.677,0.392-1h-1.582v-2h2v1.152c0.303-0.562,0.64-1.084,1-1.559v-1.594h-7v14h6.297
			C18.807,25.835,18.315,24.486,18.104,23.171 M16.362,23.171h-2v-2h2V23.171z M16.362,20.171h-2v-2h2V20.171z M16.362,17.171h-2v-2
			h2V17.171z"/>
		<path clip-path="url(#SVGID_4_)" fill-rule="evenodd" clip-rule="evenodd" fill="#307CC0" d="M26.869,18.804
			c-1.284-1.777-2.503-2.976-2.611-5.329c0-0.07-0.022-0.116-0.066-0.162c-0.021-0.115-0.13-0.185-0.239-0.115
			c-0.131,0-0.239,0.093-0.239,0.254c-2.742,3.138-7.376,11.098-1.545,13.382c2.633,1.038,5.613-0.37,6.136-3.415
			C28.587,21.779,27.782,20.05,26.869,18.804 M23.409,25.679c-0.413,0.138-0.87-0.092-1.218-0.323
			c-0.631-0.392-1.023-1.177-1.219-1.869c-0.087-0.346-0.131-0.691-0.109-1.037c0.131-0.601,0.305-1.177,0.501-1.754
			c0.108,0.508,0.326,1.016,0.631,1.385c0.696,0.807,2.11,1.292,2.502,2.307C24.736,25.01,23.801,25.541,23.409,25.679"/>
	</g>
</g>
</svg>
