<?xml version="1.0" encoding="utf-8"?>
<!-- Generator: Adobe Illustrator 14.0.0, SVG Export Plug-In  -->
<!DOCTYPE svg PUBLIC "-//W3C//DTD SVG 1.1//EN" "http://www.w3.org/Graphics/SVG/1.1/DTD/svg11.dtd" [
	<!ENTITY ns_flows "http://ns.adobe.com/Flows/1.0/">
]>
<svg version="1.1"
	 xmlns="http://www.w3.org/2000/svg" xmlns:xlink="http://www.w3.org/1999/xlink" xmlns:a="http://ns.adobe.com/AdobeSVGViewerExtensions/3.0/"
	 x="0px" y="0px" width="18px" height="17px" viewBox="0 0 18 17" enable-background="new 0 0 18 17" xml:space="preserve">
<defs>
</defs>
<g>
	<defs>
		<rect id="SVGID_1_" width="18" height="17"/>
	</defs>
	<clipPath id="SVGID_2_">
		<use xlink:href="#SVGID_1_"  overflow="visible"/>
	</clipPath>
	<path clip-path="url(#SVGID_2_)" fill="#414141" d="M4,6L4,6V4h1V2H0v14h3.995C3.984,13.436,3.96,6.763,4,6 M3,12H1v-2h2V12z M3,9
		H1V7h2V9z M3,6H1V4h2V6z"/>
	<path clip-path="url(#SVGID_2_)" fill="#F1F1F1" d="M7.2,3.344C6.777,2.83,7.09,2.532,7.158,2.477
		C7.276,2.383,7.295,2.216,7.2,2.101C7.104,1.984,6.929,1.965,6.808,2.058c-0.291,0.225-0.677,0.852-0.044,1.62
		C7.238,4.254,6.5,5.096,6.493,5.104C6.392,5.216,6.405,5.386,6.521,5.483c0.053,0.044,0.118,0.065,0.182,0.065
		c0.078,0,0.156-0.031,0.211-0.093C6.957,5.408,7.962,4.27,7.2,3.344 M8.93,5.104c-0.1,0.111-0.088,0.281,0.029,0.379
		c0.052,0.044,0.117,0.065,0.182,0.065c0.078,0,0.155-0.031,0.21-0.093c0.043-0.048,1.048-1.187,0.286-2.112
		C9.215,2.83,9.527,2.532,9.595,2.477c0.118-0.094,0.137-0.261,0.042-0.376C9.541,1.984,9.366,1.965,9.246,2.058
		c-0.292,0.225-0.678,0.852-0.045,1.62C9.675,4.254,8.938,5.096,8.93,5.104 M11.368,5.104c-0.101,0.111-0.088,0.281,0.028,0.379
		c0.053,0.044,0.118,0.065,0.182,0.065c0.078,0,0.156-0.031,0.211-0.093c0.043-0.048,1.048-1.187,0.286-2.112
		c-0.423-0.514-0.11-0.812-0.043-0.867c0.119-0.094,0.138-0.261,0.042-0.376c-0.095-0.116-0.27-0.136-0.391-0.043
		c-0.292,0.225-0.677,0.852-0.045,1.62C12.113,4.254,11.375,5.096,11.368,5.104 M13.805,5.104c-0.101,0.111-0.088,0.281,0.028,0.379
		c0.053,0.044,0.118,0.065,0.182,0.065c0.078,0,0.156-0.031,0.211-0.093c0.043-0.048,1.048-1.187,0.286-2.112
		c-0.422-0.514-0.11-0.812-0.042-0.867c0.118-0.094,0.137-0.261,0.042-0.376c-0.096-0.116-0.271-0.136-0.392-0.043
		c-0.291,0.225-0.677,0.852-0.044,1.62C14.55,4.254,13.812,5.096,13.805,5.104 M5.835,6.537C5.374,6.537,5,6.898,5,7.343v7.853
		c0,0.444,0.374,0.806,0.835,0.806c0.462,0,0.836-0.361,0.836-0.806V7.343C6.671,6.898,6.297,6.537,5.835,6.537 M7.739,6.525
		c-0.462,0-0.836,0.36-0.836,0.807v7.851c0,0.446,0.374,0.808,0.836,0.808c0.461,0,0.835-0.361,0.835-0.808V7.332
		C8.574,6.886,8.2,6.525,7.739,6.525 M9.642,6.514c-0.461,0-0.835,0.361-0.835,0.807v7.852c0,0.445,0.374,0.807,0.835,0.807
		c0.462,0,0.836-0.361,0.836-0.807V7.32C10.478,6.875,10.104,6.514,9.642,6.514 M11.546,6.502c-0.462,0-0.836,0.361-0.836,0.808
		v7.851c0,0.446,0.374,0.807,0.836,0.807c0.461,0,0.835-0.36,0.835-0.807V7.31C12.381,6.863,12.007,6.502,11.546,6.502
		 M13.449,6.491c-0.461,0-0.835,0.361-0.835,0.806v7.853c0,0.444,0.374,0.806,0.835,0.806c0.462,0,0.836-0.361,0.836-0.806V7.297
		C14.285,6.853,13.911,6.491,13.449,6.491 M16.316,7.844h-0.128V7.285c0-0.445-0.374-0.806-0.835-0.806
		c-0.462,0-0.836,0.36-0.836,0.806v7.852c0,0.446,0.374,0.808,0.836,0.808c0.461,0,0.835-0.361,0.835-0.808V9.905h0.128
		c0.378,0,0.685-0.462,0.685-1.031S16.694,7.844,16.316,7.844"/>
</g>
</svg>
