<?xml version="1.0" encoding="utf-8"?>
<!-- Generator: Adobe Illustrator 14.0.0, SVG Export Plug-In  -->
<!DOCTYPE svg PUBLIC "-//W3C//DTD SVG 1.1//EN" "http://www.w3.org/Graphics/SVG/1.1/DTD/svg11.dtd" [
	<!ENTITY ns_flows "http://ns.adobe.com/Flows/1.0/">
]>
<svg version="1.1"
	 xmlns="http://www.w3.org/2000/svg" xmlns:xlink="http://www.w3.org/1999/xlink" xmlns:a="http://ns.adobe.com/AdobeSVGViewerExtensions/3.0/"
	 x="0px" y="0px" width="40px" height="40px" viewBox="0 0.001 40 40" enable-background="new 0 0.001 40 40" xml:space="preserve">
<defs>
</defs>
<g>
	<defs>
		<rect id="SVGID_1_" y="0.001" width="39.841" height="39.847"/>
	</defs>
	<clipPath id="SVGID_2_">
		<use xlink:href="#SVGID_1_"  overflow="visible"/>
	</clipPath>
	<path clip-path="url(#SVGID_2_)" fill-rule="evenodd" clip-rule="evenodd" fill="#EBEBEB" d="M19.92,0C8.918,0,0,8.92,0,19.925
		c0,11.003,8.918,19.923,19.92,19.923s19.92-8.92,19.92-19.923C39.84,8.92,30.922,0,19.92,0"/>
	<path clip-path="url(#SVGID_2_)" fill-rule="evenodd" clip-rule="evenodd" fill="#F15D22" d="M21.374,17.157h7v-1h-7V17.157z
		 M21.374,28.157h2v-4h3v4h2v-10h-7V28.157z M11.374,28.157h9v-17h-9V28.157z M16.374,13.157h3v3h-3V13.157z M16.374,17.157h3v3h-3
		V17.157z M16.374,21.157h3v3h-3V21.157z M12.374,13.157h3v3h-3V13.157z M12.374,17.157h3v3h-3V17.157z M12.374,21.157h3v3h-3
		V21.157z"/>
</g>
</svg>
