<?xml version="1.0" encoding="utf-8"?>
<!-- Generator: Adobe Illustrator 19.0.0, SVG Export Plug-In . SVG Version: 6.00 Build 0)  -->
<svg version="1.1" id="Слой_1" xmlns="http://www.w3.org/2000/svg" xmlns:xlink="http://www.w3.org/1999/xlink" x="0px" y="0px"
	 viewBox="0 0 32 32" style="enable-background:new 0 0 32 32;" xml:space="preserve">
<style type="text/css">
	.st0{opacity:0.6;}
	.st1{fill-rule:evenodd;clip-rule:evenodd;fill:#DFDFDF;}
</style>
<g id="Exit_Btn_3_" class="st0">
	<g id="XMLID_38_">
		<path id="XMLID_39_" class="st1" d="M16,0C7.2,0,0,7.2,0,16c0,8.8,7.2,16,16,16c8.8,0,16-7.2,16-16C32,7.2,24.8,0,16,0z M16,28.7
			C9,28.7,3.3,23,3.3,16C3.3,9,9,3.3,16,3.3C23,3.3,28.7,9,28.7,16C28.7,23,23,28.7,16,28.7z M23,9.9l-1-1c-0.4-0.4-1-0.4-1.4,0
			L16,13.6l-4.7-4.7c-0.4-0.4-1-0.4-1.4,0l-1,1c-0.4,0.4-0.4,1,0,1.4l4.7,4.7l-4.7,4.7c-0.4,0.4-0.4,1,0,1.4l1,1
			c0.4,0.4,1,0.4,1.4,0l4.7-4.7l4.7,4.7c0.4,0.4,1,0.4,1.4,0l1-1c0.4-0.4,0.4-1,0-1.4L18.4,16l4.7-4.7C23.4,10.9,23.4,10.3,23,9.9z"
			/>
	</g>
</g>
</svg>
